<svg width="18" height="20" viewBox="0 0 18 20" fill="none" xmlns="http://www.w3.org/2000/svg">
<path d="M0.533203 11.0068C0.533203 15.6387 4.37646 19.4736 9 19.4736C13.6318 19.4736 17.4668 15.6387 17.4668 11.0068C17.4668 6.92285 14.4868 3.46143 10.6021 2.69775V1.51904C10.6021 0.929688 10.1953 0.771973 9.74707 1.0957L7.09912 2.94678C6.71729 3.2124 6.70898 3.61084 7.09912 3.88477L9.73877 5.74414C10.1953 6.07617 10.6021 5.91846 10.6021 5.3208V4.14209C13.7397 4.85596 16.0474 7.64502 16.0474 11.0068C16.0474 14.9248 12.918 18.0625 9 18.0625C5.08203 18.0625 1.93604 14.9248 1.94434 11.0068C1.95264 8.64941 3.09814 6.56592 4.86621 5.3042C5.20654 5.04688 5.31445 4.65674 5.10693 4.30811C4.89941 3.96777 4.44287 3.87646 4.07764 4.15869C1.94434 5.71094 0.533203 8.21777 0.533203 11.0068Z" fill="#000000"/>
</svg>
