<svg width="126" height="40" viewBox="0 0 126 40" fill="none" xmlns="http://www.w3.org/2000/svg">
<g clip-path="url(#clip0_0_363)">
<path fill-rule="evenodd" clip-rule="evenodd" d="M45.72 36.725L31.44 28.505C27.26 26.085 24.7 21.635 24.7 16.855V0.00500488H21.06V16.855C21.06 21.635 18.5 26.085 14.32 28.505L0.039978 36.725L1.85998 39.895L16.14 31.675C20.32 29.245 25.44 29.245 29.62 31.675L43.9 39.895L45.72 36.725Z" fill="#0E7496"/>
<path fill-rule="evenodd" clip-rule="evenodd" d="M44.64 5.46499H43.7V9.50499H42.42V0.61499H43.7V4.38499H44.57L47.54 0.61499H49.02L45.59 4.79499L49.16 9.43499H47.67L44.64 5.46499ZM55.69 9.50499H54.61V3.91499H52.39L52.32 5.53499C52.19 8.15499 51.58 9.57499 50.03 9.57499H49.83V8.63499H49.9C50.5 8.63499 51.04 8.02499 51.18 5.26499L51.24 3.03499H55.62V9.50499H55.69ZM61.82 4.52499L58.39 9.50499H57.31V2.90499H58.45V7.88499L61.89 2.90499H63.03V9.50499H61.89V4.52499H61.82ZM68.96 9.50499V6.60499H65.73V9.50499H64.58V2.90499H65.73V5.66499H68.96V2.90499H70.11V9.50499H68.96ZM76.17 4.52499L72.74 9.50499H71.59V2.90499H72.74V7.88499L76.17 2.90499H77.32V9.50499H76.17V4.52499ZM80.89 6.60499H80.01V9.50499H78.87V2.90499H80.01V5.59499H80.82L82.91 2.90499H84.26L81.76 6.00499L84.53 9.50499H83.11L80.89 6.60499ZM85 7.75499C85 6.20499 86.75 5.73499 89.44 5.46499V5.32499C89.44 4.11499 88.77 3.71499 87.96 3.71499C87.02 3.71499 86.48 4.18499 86.48 4.99499H85.33C85.4 3.57499 86.68 2.76499 87.96 2.76499C89.78 2.76499 90.59 3.64499 90.59 5.46499V7.01499C90.59 8.15499 90.66 8.90499 90.79 9.50499H89.65C89.58 9.23499 89.58 8.96499 89.58 8.63499C89.18 9.30499 88.5 9.70499 87.36 9.70499C86.01 9.70499 85 8.96499 85 7.75499ZM89.51 6.34499C87.49 6.54499 86.21 6.81499 86.21 7.75499C86.21 8.36499 86.68 8.76499 87.49 8.76499C88.5 8.76499 89.51 8.29499 89.51 6.74499V6.34499ZM55.29 15.905H52.39V14.825H59.4V15.905H56.5V23.725H55.29V15.905ZM61.35 20.755H60.47V23.655H59.33V17.055H60.47V19.745H61.28L63.37 17.055H64.72L62.23 20.215L64.99 23.725H63.57L61.35 20.755ZM65.39 21.975C65.39 20.425 67.14 19.945 69.84 19.675V19.545C69.84 18.335 69.17 17.925 68.36 17.925C67.41 17.925 66.87 18.395 66.87 19.205H65.73C65.8 17.795 67.08 16.985 68.36 16.985C70.18 16.985 70.98 17.865 70.98 19.675V21.225C70.98 22.375 71.05 23.115 71.19 23.725H70.04C69.97 23.455 69.97 23.185 69.97 22.845C69.57 23.525 68.9 23.925 67.75 23.925C66.4 23.855 65.39 23.185 65.39 21.975ZM69.97 20.555C67.95 20.755 66.67 21.025 66.67 21.975C66.67 22.575 67.14 22.985 67.95 22.985C68.96 22.985 69.97 22.505 69.97 20.965V20.555ZM76.11 23.725V21.025C75.36 21.225 74.76 21.295 74.15 21.295C72.74 21.295 72.06 20.695 72.06 19.275V17.115H73.21V19.005C73.21 20.015 73.68 20.285 74.62 20.285C75.03 20.285 75.57 20.215 76.17 20.085V17.055H77.32V23.655H76.11V23.725ZM79.54 20.755C79.61 22.175 80.62 22.845 81.56 22.845C82.57 22.845 83.11 22.375 83.38 21.765H84.53C84.26 22.915 83.18 23.855 81.56 23.855C79.47 23.855 78.33 22.375 78.33 20.425C78.33 18.335 79.74 16.985 81.49 16.985C83.52 16.985 84.73 18.665 84.59 20.755H79.54ZM79.54 19.815H83.45C83.38 18.875 82.71 17.925 81.56 17.925C80.55 17.925 79.68 18.465 79.54 19.815ZM88.57 17.115C89.92 17.115 90.99 17.455 90.99 18.805C90.99 19.475 90.66 20.015 90.05 20.215C90.72 20.425 91.26 20.895 91.26 21.765C91.26 23.115 90.19 23.725 88.77 23.725H85.74V17.115H88.57ZM88.5 19.885C89.31 19.885 89.78 19.675 89.78 18.935C89.78 18.265 89.24 18.135 88.43 18.135H86.82V19.945H88.5V19.885ZM86.82 22.715H88.57C89.58 22.715 90.05 22.445 90.05 21.765C90.05 21.025 89.58 20.825 88.5 20.825H86.75V22.715H86.82ZM92.14 21.975C92.14 20.425 93.89 19.945 96.59 19.675V19.545C96.59 18.335 95.91 17.925 95.1 17.925C94.16 17.925 93.62 18.395 93.62 19.205H92.48C92.54 17.795 93.82 16.985 95.1 16.985C96.92 16.985 97.73 17.865 97.73 19.675V21.225C97.73 22.375 97.8 23.115 97.93 23.725H96.79C96.72 23.455 96.72 23.185 96.72 22.845C96.32 23.525 95.64 23.925 94.5 23.925C93.15 23.855 92.14 23.185 92.14 21.975ZM96.65 20.555C94.63 20.755 93.35 21.025 93.35 21.975C93.35 22.575 93.82 22.985 94.63 22.985C95.64 22.985 96.65 22.505 96.65 20.965V20.555ZM62.56 28.975H68.63V30.055H63.84V32.755H68.36V33.825H63.84V36.795H68.63V37.875H62.56V28.975ZM75.43 37.875H74.29V32.215H71.12V37.875H69.97V31.265H75.43V37.875ZM81.49 32.885L78.06 37.875H76.91V31.265H78.06V36.255L81.49 31.265H82.64V37.875H81.49V32.885ZM88.03 31.265C89.98 31.265 91.4 32.345 91.4 34.565C91.4 36.855 89.92 37.875 88.03 37.875V39.955H86.95V37.875C85.07 37.875 83.58 36.855 83.58 34.565C83.58 32.345 85.07 31.265 86.95 31.265V28.975H88.1V31.265H88.03ZM86.95 32.275C85.67 32.275 84.73 33.015 84.73 34.635C84.73 36.255 85.6 36.995 86.95 36.995V32.275ZM88.03 36.995C89.31 36.995 90.25 36.255 90.25 34.635C90.25 33.015 89.38 32.275 88.03 32.275V36.995ZM92.27 36.115C92.27 34.565 94.03 34.095 96.72 33.825V33.695C96.72 32.485 96.05 32.075 95.24 32.075C94.3 32.075 93.76 32.545 93.76 33.355H92.61C92.68 31.945 93.96 31.135 95.24 31.135C97.06 31.135 97.87 32.005 97.87 33.825V35.375C97.87 36.525 97.93 37.265 98.07 37.875H96.92C96.86 37.605 96.86 37.335 96.86 36.995C96.45 37.665 95.78 38.075 94.63 38.075C93.28 38.075 92.27 37.335 92.27 36.115ZM96.86 34.705C94.83 34.905 93.55 35.175 93.55 36.115C93.55 36.725 94.03 37.125 94.83 37.125C95.85 37.125 96.86 36.655 96.86 35.105V34.705ZM103.79 37.875V34.975H100.56V37.875H99.42V31.265H100.56V34.035H103.79V31.265H104.94V37.875H103.79ZM112.49 34.635C112.49 36.995 110.87 38.075 109.32 38.075C107.77 38.075 106.15 37.065 106.15 34.635C106.15 32.275 107.77 31.205 109.32 31.205C110.87 31.205 112.49 32.215 112.49 34.635ZM109.32 37.065C110.33 37.065 111.27 36.325 111.27 34.635C111.27 32.885 110.33 32.215 109.32 32.215C108.31 32.215 107.37 32.885 107.37 34.635C107.37 36.385 108.31 37.065 109.32 37.065ZM116.6 31.265C117.94 31.265 119.02 31.605 119.02 32.955C119.02 33.625 118.68 34.165 118.08 34.365C118.75 34.565 119.29 35.045 119.29 35.915C119.29 37.265 118.21 37.875 116.8 37.875H113.77V31.265H116.6ZM116.53 34.035C117.34 34.035 117.81 33.825 117.81 33.085C117.81 32.415 117.27 32.275 116.46 32.275H114.84V34.095H116.53V34.035ZM114.84 36.925H116.6C117.61 36.925 118.08 36.655 118.08 35.985C118.08 35.245 117.61 35.045 116.53 35.045H114.78V36.925H114.84ZM120.23 36.115C120.23 34.565 121.99 34.095 124.68 33.825V33.695C124.68 32.485 124.01 32.075 123.2 32.075C122.26 32.075 121.72 32.545 121.72 33.355H120.57C120.64 31.945 121.92 31.135 123.2 31.135C125.02 31.135 125.83 32.005 125.83 33.825V35.375C125.83 36.525 125.89 37.265 126.03 37.875H124.88C124.81 37.605 124.81 37.335 124.81 36.995C124.41 37.665 123.74 38.075 122.59 38.075C121.31 38.075 120.23 37.335 120.23 36.115ZM124.81 34.705C122.79 34.905 121.51 35.175 121.51 36.115C121.51 36.725 121.99 37.125 122.79 37.125C123.8 37.125 124.81 36.655 124.81 35.105V34.705Z" fill="#414042"/>
</g>
<defs>
<clipPath id="clip0_0_363">
<rect width="126" height="40" fill="white"/>
</clipPath>
</defs>
</svg>
